HIERARCHY
ROOT Hips
{
  OFFSET 54.304 93.8925 34.5014
  CHANNELS 6 Xposition Yposition Zposition Zrotation Xrotation Yrotation
  JOINT spine
  {
    OFFSET 0 7.80059 0.448573
    CHANNELS 3 Zrotation Xrotation Yrotation
    JOINT spine1
    {
      OFFSET 0 10.1364 0
      CHANNELS 3 Zrotation Xrotation Yrotation
      JOINT spine2
      {
        OFFSET 0 9.71251 0
        CHANNELS 3 Zrotation Xrotation Yrotation
        JOINT Neck
        {
          OFFSET 0 24.9361 1.18887
          CHANNELS 3 Zrotation Xrotation Yrotation
          JOINT Head
          {
            OFFSET 0 7.53384 0
            CHANNELS 3 Zrotation Xrotation Yrotation
            End Site
            {
              OFFSET 0 18.2361 -6.01402
            }
          }
        }
        JOINT RightShoulder
        {
          OFFSET -4.08965 10.4888 -0.569457
          CHANNELS 3 Zrotation Xrotation Yrotation
          JOINT RightArm
          {
            OFFSET 0 13.757 0
            CHANNELS 3 Zrotation Xrotation Yrotation
            JOINT RightArmRoll
            {
              OFFSET 0 6.94478 0
              CHANNELS 3 Zrotation Xrotation Yrotation
              JOINT RightForeArm
              {
                OFFSET 0 20.2277 0
                CHANNELS 3 Zrotation Xrotation Yrotation
                JOINT RightForeArmRoll
                {
                  OFFSET 0 7.79312 0
                  CHANNELS 3 Zrotation Xrotation Yrotation
                  JOINT RightHand
                  {
                    OFFSET 0 15.6391 0
                    CHANNELS 3 Zrotation Xrotation Yrotation
                    End Site
                    {
                      OFFSET 0 0 0
                    }
                  }
                }
              }
            }
          }
        }
        JOINT LeftShoulder
        {
          OFFSET 4.08965 10.4888 -0.569457
          CHANNELS 3 Zrotation Xrotation Yrotation
          JOINT LeftArm
          {
            OFFSET 0 13.757 0
            CHANNELS 3 Zrotation Xrotation Yrotation
            JOINT LeftArmRoll
            {
              OFFSET 0 6.94478 0
              CHANNELS 3 Zrotation Xrotation Yrotation
              JOINT LeftForeArm
              {
                OFFSET 0 20.2277 0
                CHANNELS 3 Zrotation Xrotation Yrotation
                JOINT LeftForeArmRoll
                {
                  OFFSET 0 7.79312 0
                  CHANNELS 3 Zrotation Xrotation Yrotation
                  JOINT LeftHand
                  {
                    OFFSET 0 15.6391 0
                    CHANNELS 3 Zrotation Xrotation Yrotation
                    End Site
                    {
                      OFFSET 0 0 0
                    }
                  }
                }
              }
            }
          }
        }
      }
    }
  }
  JOINT RightUpLeg
  {
    OFFSET -6.91416 -1.26788 -1.06358
    CHANNELS 3 Zrotation Xrotation Yrotation
    JOINT RightUpLegRoll
    {
      OFFSET 0 18.3378 0
      CHANNELS 3 Zrotation Xrotation Yrotation
      JOINT RightLeg
      {
        OFFSET 0 -22.7085 0
        CHANNELS 3 Zrotation Xrotation Yrotation
        JOINT RightLegRoll
        {
          OFFSET 0 22.7828 0
          CHANNELS 3 Zrotation Xrotation Yrotation
          JOINT RightFoot
          {
            OFFSET 0 18.9629 0
            CHANNELS 3 Zrotation Xrotation Yrotation
            JOINT RightToeBase
            {
              OFFSET 0 15.852 0
              CHANNELS 3 Zrotation Xrotation Yrotation
              End Site
              {
                OFFSET 0.00671906 7.677 -0.884893
              }
            }
          }
        }
      }
    }
  }
  JOINT LeftUpLeg
  {
    OFFSET 6.91416 -1.26788 -1.06358
    CHANNELS 3 Zrotation Xrotation Yrotation
    JOINT LeftUpLegRoll
    {
      OFFSET 0 18.3379 0
      CHANNELS 3 Zrotation Xrotation Yrotation
      JOINT LeftLeg
      {
        OFFSET 0 22.7084 0
        CHANNELS 3 Zrotation Xrotation Yrotation
        JOINT LeftLegRoll
        {
          OFFSET 0 22.9934 0
          CHANNELS 3 Zrotation Xrotation Yrotation
          JOINT LeftFoot
          {
            OFFSET 0 18.7522 0
            CHANNELS 3 Zrotation Xrotation Yrotation
            JOINT LeftToeBase
            {
              OFFSET 0 15.852 0
              CHANNELS 3 Zrotation Xrotation Yrotation
              End Site
              {
                OFFSET -0.030112 7.677 -0.884893
              }
            }
          }
        }
      }
    }
  }
}
MOTION
Frames: 12
Frame Time: 0.00208333
51.5548 50.3754 1.42794 -0.196473 -21.3722 4.33935 0.652318 2.5121 -1.13102 1.35644 9.01286 -2.37979 1.38952 10.6571 -2.40808 -29.7576 10.4843 5.72587 20.5016 -8.75476 1.98404 59.2728 -3.21538 -2.0328 126.553 26.1959 -42.4335 -1.61375e-006 -2.79706e-006 -7.2305e-007 25.1232 51.4982 -12.7828 -3.02161e-006 1.28479e-005 -3.00002 8.02895 -4.95082 0.697326 -78.1517 -0.963219 2.60547 -101.169 29.1905 18.683 6.3792e-006 -5.17107e-006 -4.70643e-006 -17.7133 41.0262 9.40525 7.24887e-006 3.94464e-006 3.00001 -8.02885 -4.95089 -0.697464 178.213 70.4481 10.088 180 1.52488e-005 177.928 -12.0641 71.2278 14.9568 8.90174e-007 -2.0949e-006 2.8038 -40.7131 78.9679 40.0564 8.13848 25.2622 -3.48893 -155.257 66.8187 -48.5811 4.57705e-006 1.05463e-005 -3.63542 164.313 -66.0918 159.964 -1.14586e-006 -8.28892e-006 -3.89425 50.438 74.8553 -33.6018 -9.52008 34.7665 7.47051 
51.5463 50.3794 1.41702 -0.19733 -21.365 4.33908 0.652028 2.50946 -1.13106 1.35736 9.00729 -2.37944 1.39044 10.6515 -2.40775 -29.7802 10.5228 5.74236 20.5165 -8.76694 1.98964 59.2535 -3.20946 -2.02752 126.569 26.1873 -42.4036 -1.61375e-006 -2.79706e-006 -7.2305e-007 25.1165 51.4854 -12.7789 -3.02161e-006 1.28479e-005 -3.00002 8.02895 -4.95082 0.697326 -78.1571 -0.95549 2.60288 -101.188 29.0456 18.5901 6.3792e-006 -5.17107e-006 -4.70643e-006 -17.66 41.2639 9.44739 7.24887e-006 3.94464e-006 3.00001 -8.02885 -4.95089 -0.697464 178.176 70.4616 10.1164 180 1.52488e-005 177.929 -12.0673 71.2394 14.9556 8.90174e-007 -2.0949e-006 2.80222 -40.6499 78.9534 39.9945 8.13848 25.2622 -3.48893 -155.243 66.8163 -48.6046 4.57705e-006 1.05463e-005 -3.63661 164.303 -66.0885 159.95 -1.14586e-006 -8.28892e-006 -3.89549 50.496 74.867 -33.648 -9.51753 34.767 7.45965 
51.5303 50.4177 1.39164 -0.198065 -21.3573 4.33888 0.651636 2.5067 -1.13107 1.35813 9.00146 -2.37907 1.39121 10.6457 -2.40739 -29.8019 10.5621 5.75906 20.5306 -8.77992 1.99546 59.2356 -3.20351 -2.02233 126.584 26.1792 -42.3738 -1.61375e-006 -2.79706e-006 -7.2305e-007 25.11 51.4718 -12.7746 -3.02161e-006 1.28479e-005 -3.00002 8.02895 -4.95082 0.697326 -78.1623 -0.947297 2.60009 -101.207 28.8997 18.4966 6.3792e-006 -5.17107e-006 -4.70643e-006 -17.6064 41.5022 9.49012 7.24887e-006 3.94464e-006 3.00001 -8.02885 -4.95089 -0.697464 178.138 70.476 10.1444 180 1.52488e-005 177.93 -12.0707 71.2514 14.9545 8.90174e-007 -2.0949e-006 2.80052 -40.5827 78.938 39.9292 8.13848 25.2622 -3.48893 -155.232 66.8133 -48.6254 4.57705e-006 1.05463e-005 -3.63806 164.293 -66.0856 159.935 -1.14586e-006 -8.28892e-006 -3.89704 50.5647 74.8807 -33.7022 -9.5144 34.7677 7.44564 
51.5402 50.4078 1.39819 -0.198716 -21.3494 4.33873 0.651174 2.50385 -1.13106 1.3588 8.99545 -2.37868 1.39187 10.6397 -2.407 -29.823 10.6022 5.77591 20.544 -8.79348 2.00142 59.2185 -3.19753 -2.01721 126.598 26.1713 -42.3441 -1.61375e-006 -2.79706e-006 -7.2305e-007 25.1035 51.4578 -12.7702 -3.02161e-006 1.28479e-005 -3.00002 8.02895 -4.95082 0.697326 -78.1675 -0.938779 2.59716 -101.226 28.753 18.4029 6.3792e-006 -5.17107e-006 -4.70643e-006 -17.5528 41.7408 9.5334 7.24887e-006 3.94464e-006 3.00001 -8.02885 -4.95089 -0.697464 178.1 70.491 10.1722 180 1.52488e-005 177.931 -12.0743 71.2639 14.9534 8.90174e-007 -2.0949e-006 2.79874 -40.5129 78.9222 39.8617 8.13848 25.2622 -3.48893 -155.224 66.81 -48.6442 4.57705e-006 1.05463e-005 -3.63971 164.282 -66.0828 159.92 -1.14586e-006 -8.28892e-006 -3.8988 50.6408 74.8959 -33.762 -9.51088 34.7685 7.42943 
51.5255 50.4181 1.39263 -0.199318 -21.3413 4.33861 0.650671 2.50095 -1.13104 1.35941 8.98933 -2.37827 1.39248 10.6336 -2.4066 -29.8437 10.6425 5.79284 20.5571 -8.80736 2.00746 59.202 -3.19153 -2.01213 126.612 26.1636 -42.3144 -1.61375e-006 -2.79706e-006 -7.2305e-007 25.0971 51.4434 -12.7656 -3.02161e-006 1.28479e-005 -3.00002 8.02895 -4.95082 0.697326 -78.1726 -0.930075 2.59414 -101.247 28.6058 18.3092 6.3792e-006 -5.17107e-006 -4.70643e-006 -17.4995 41.9796 9.57722 7.24887e-006 3.94464e-006 3.00001 -8.02885 -4.95089 -0.697464 178.061 70.5064 10.1999 180 1.52489e-005 177.933 -12.078 71.2765 14.9524 8.90174e-007 -2.0949e-006 2.79692 -40.4417 78.906 39.7929 8.13848 25.2622 -3.48893 -155.217 66.8064 -48.662 4.57705e-006 1.05463e-005 -3.64145 164.272 -66.0801 159.905 -1.14586e-006 -8.28892e-006 -3.9007 50.7212 74.912 -33.8251 -9.50712 34.7694 7.41197 
51.5251 50.4162 1.38823 -0.199908 -21.3332 4.33849 0.650158 2.49803 -1.13103 1.36001 8.98318 -2.37786 1.39307 10.6274 -2.40619 -29.8643 10.683 5.80981 20.57 -8.82133 2.01353 59.1856 -3.18553 -2.00706 126.626 26.1559 -42.2848 -1.61375e-006 -2.79706e-006 -7.2305e-007 25.0907 51.429 -12.7611 -3.02161e-006 1.28479e-005 -3.00002 8.02895 -4.95082 0.697326 -78.1777 -0.921325 2.59111 -101.267 28.4583 18.2158 6.3792e-006 -5.17107e-006 -4.70643e-006 -17.4465 42.2184 9.62155 7.24887e-006 3.94464e-006 3.00001 -8.02885 -4.95089 -0.697464 178.023 70.5218 10.2275 180 1.52489e-005 177.934 -12.0818 71.2892 14.9514 8.90174e-007 -2.0949e-006 2.79508 -40.3703 78.8897 39.724 8.13848 25.2622 -3.48893 -155.21 66.8028 -48.6794 4.57705e-006 1.05463e-005 -3.64323 164.262 -66.0774 159.889 -1.14586e-006 -8.28892e-006 -3.90262 50.8028 74.9282 -33.8892 -9.50331 34.7704 7.39419 
51.5288 50.4161 1.40479 -0.200523 -21.3251 4.33836 0.649666 2.49514 -1.13101 1.36063 8.97709 -2.37746 1.39369 10.6213 -2.4058 -29.8851 10.7233 5.82674 20.5832 -8.83513 2.01956 59.169 -3.17954 -2.00197 126.64 26.1481 -42.2551 -1.61375e-006 -2.79706e-006 -7.2305e-007 25.0842 51.4148 -12.7566 -3.02161e-006 1.28479e-005 -3.00002 8.02895 -4.95082 0.697326 -78.1828 -0.912668 2.58812 -101.289 28.3109 18.123 6.3792e-006 -5.17107e-006 -4.70643e-006 -17.3942 42.4571 9.66636 7.24887e-006 3.94464e-006 3.00001 -8.02885 -4.95089 -0.697464 177.985 70.537 10.2554 180 1.52489e-005 177.935 -12.0854 71.3018 14.9504 8.90174e-007 -2.0949e-006 2.79327 -40.3 78.8735 39.656 8.13848 25.2622 -3.48893 -155.202 66.7992 -48.6975 4.57705e-006 1.05463e-005 -3.64495 164.251 -66.0747 159.874 -1.14586e-006 -8.28892e-006 -3.90449 50.8825 74.944 -33.9518 -9.49962 34.7713 7.37703 
51.5278 50.4193 1.40128 -0.201198 -21.3173 4.3382 0.649224 2.49232 -1.13101 1.36133 8.97113 -2.37707 1.39438 10.6154 -2.40542 -29.9064 10.7631 5.84357 20.5968 -8.84852 2.02548 59.1517 -3.17356 -1.99683 126.654 26.1401 -42.2254 -1.61375e-006 -2.79706e-006 -7.2305e-007 25.0778 51.4008 -12.7522 -3.02161e-006 1.28479e-005 -3.00002 8.02895 -4.95082 0.697326 -78.188 -0.904243 2.58523 -101.311 28.1637 18.031 6.3792e-006 -5.17107e-006 -4.70643e-006 -17.3428 42.6955 9.71163 7.24887e-006 3.94464e-006 3.00001 -8.02885 -4.95089 -0.697464 177.946 70.5519 10.2834 180 1.52489e-005 177.936 -12.089 71.3141 14.9493 8.90174e-007 -2.0949e-006 2.79152 -40.2317 78.8577 39.5899 8.13848 25.2622 -3.48893 -155.193 66.796 -48.7168 4.57705e-006 1.05463e-005 -3.64654 164.241 -66.0719 159.859 -1.14586e-006 -8.28892e-006 -3.90619 50.957 74.9587 -34.0105 -9.4962 34.7721 7.36145 
51.5459 50.3815 1.39448 -0.201969 -21.3097 4.33798 0.648863 2.48959 -1.13103 1.36215 8.96538 -2.37671 1.39519 10.6096 -2.40506 -29.9285 10.8022 5.86025 20.6111 -8.86127 2.03123 59.1334 -3.16762 -1.99162 126.669 26.1317 -42.1956 -1.61375e-006 -2.79706e-006 -7.2305e-007 25.0712 51.3875 -12.7481 -3.02161e-006 1.28479e-005 -3.00002 8.02895 -4.95082 0.697326 -78.1933 -0.896189 2.5825 -101.333 28.017 17.9401 6.3792e-006 -5.17107e-006 -4.70643e-006 -17.2924 42.9333 9.75732 7.24887e-006 3.94464e-006 3.00001 -8.02885 -4.95089 -0.697464 177.909 70.566 10.3118 180 1.52489e-005 177.937 -12.0924 71.326 14.9482 8.90174e-007 -2.0949e-006 2.78985 -40.167 78.8426 39.5268 8.13848 25.2622 -3.48893 -155.182 66.7931 -48.7383 4.57705e-006 1.05463e-005 -3.64791 164.231 -66.0688 159.845 -1.14586e-006 -8.28892e-006 -3.90765 51.0231 74.9717 -34.063 -9.49325 34.7727 7.34839 
51.5413 50.3893 1.3966 -0.202873 -21.3026 4.33768 0.648613 2.487 -1.13107 1.36314 8.95992 -2.37638 1.39617 10.6042 -2.40475 -29.9517 10.8403 5.87672 20.6264 -8.87311 2.03676 59.1136 -3.16172 -1.9863 126.686 26.1229 -42.1657 -1.61375e-006 -2.79706e-006 -7.2305e-007 25.0646 51.3749 -12.7443 -3.02161e-006 1.28479e-005 -3.00002 8.02895 -4.95082 0.697326 -78.1988 -0.888645 2.57999 -101.355 27.871 17.8506 6.3792e-006 -5.17107e-006 -4.70643e-006 -17.2433 43.1704 9.80341 7.24887e-006 3.94464e-006 3.00001 -8.02885 -4.95089 -0.697464 177.871 70.5791 10.3406 180 1.52489e-005 177.938 -12.0955 71.3374 14.9469 8.90174e-007 -2.0949e-006 2.78831 -40.1067 78.8282 39.4677 8.13848 25.2622 -3.48893 -155.167 66.7909 -48.7629 4.57705e-006 1.05463e-005 -3.649 164.221 -66.0655 159.831 -1.14586e-006 -8.28892e-006 -3.90875 51.0776 74.9825 -34.1067 -9.49092 34.773 7.33877 
51.5392 50.3768 1.3825 -0.203947 -21.296 4.33729 0.648504 2.48458 -1.13115 1.36433 8.95484 -2.37609 1.39736 10.5991 -2.40448 -29.9763 10.8771 5.89291 20.6429 -8.88383 2.04199 59.092 -3.15587 -1.98085 126.705 26.1134 -42.1357 -1.61375e-006 -2.79706e-006 -7.2305e-007 25.0578 51.3633 -12.7408 -3.02161e-006 1.28479e-005 -3.00002 8.02895 -4.95082 0.697326 -78.2045 -0.881751 2.57776 -101.378 27.7261 17.7628 6.3792e-006 -5.17107e-006 -4.70643e-006 -17.1956 43.4067 9.84986 7.24887e-006 3.94464e-006 3.00001 -8.02885 -4.95089 -0.697464 177.835 70.5911 10.3699 180 1.52489e-005 177.938 -12.0983 71.3481 14.9455 8.90174e-007 -2.0949e-006 2.78694 -40.0523 78.815 39.4136 8.13848 25.2622 -3.48893 -155.147 66.7895 -48.7912 4.57705e-006 1.05463e-005 -3.6497 164.212 -66.0618 159.818 -1.14586e-006 -8.28892e-006 -3.90942 51.1173 74.9902 -34.1394 -9.48939 34.773 7.33356 
51.5413 50.3697 1.38639 -0.205225 -21.29 4.33678 0.648568 2.48237 -1.13126 1.36577 8.9502 -2.37586 1.3988 10.5944 -2.40426 -30.0025 10.9123 5.90875 20.6609 -8.89316 2.04686 59.0681 -3.15009 -1.97524 126.725 26.1032 -42.1056 -1.61375e-006 -2.79706e-006 -7.2305e-007 25.0508 51.3528 -12.7379 -3.02161e-006 1.28479e-005 -3.00002 8.02895 -4.95082 0.697326 -78.2104 -0.875646 2.57587 -101.401 27.5825 17.6768 6.3792e-006 -5.17107e-006 -4.70643e-006 -17.1497 43.642 9.89664 7.24887e-006 3.94464e-006 3.00001 -8.02885 -4.95089 -0.697464 177.799 70.6016 10.3999 180 1.52489e-005 177.939 -12.1007 71.358 14.9439 8.90174e-007 -2.0949e-006 2.78576 -40.0047 78.803 39.3655 8.13848 25.2622 -3.48893 -155.122 66.7889 -48.8241 4.57705e-006 1.05463e-005 -3.64995 164.203 -66.0577 159.806 -1.14586e-006 -8.28892e-006 -3.90955 51.139 74.9945 -34.1584 -9.48882 34.7726 7.33368 
